<svg xmlns="http://www.w3.org/2000/svg" viewBox="0 0 250 200"><rect x="50" y="60" width="150" height="80" rx="0" fill="none" stroke="black" stroke-width="1.5" /><circle cx="125" cy="40" r="15" fill="none" stroke="black" stroke-width="1.5" /><path d="M 110 40 A 15 15 0 0 1 140 40" fill="none" stroke="black" stroke-width="1.5" /><circle cx="125" cy="160" r="15" fill="none" stroke="black" stroke-width="1.5" /><path d="M 110 160 A 15 15 0 0 1 140 160" fill="none" stroke="black" stroke-width="1.5" /><circle cx="75" cy="40" r="15" fill="none" stroke="black" stroke-width="1.5" /><path d="M 60 40 A 15 15 0 0 1 90 40" fill="none" stroke="black" stroke-width="1.5" /><circle cx="75" cy="160" r="15" fill="none" stroke="black" stroke-width="1.5" /><path d="M 60 160 A 15 15 0 0 1 90 160" fill="none" stroke="black" stroke-width="1.5" /><circle cx="175" cy="40" r="15" fill="none" stroke="black" stroke-width="1.5" /><path d="M 160 40 A 15 15 0 0 1 190 40" fill="none" stroke="black" stroke-width="1.5" /><circle cx="175" cy="160" r="15" fill="none" stroke="black" stroke-width="1.5" /><path d="M 160 160 A 15 15 0 0 1 190 160" fill="none" stroke="black" stroke-width="1.5" /><circle cx="30" cy="100" r="15" fill="none" stroke="black" stroke-width="1.5" /><path d="M 15 100 A 15 15 0 0 1 45 100" fill="none" stroke="black" stroke-width="1.5" /><circle cx="220" cy="100" r="15" fill="none" stroke="black" stroke-width="1.5" /><path d="M 205 100 A 15 15 0 0 1 235 100" fill="none" stroke="black" stroke-width="1.5" /></svg>